<svg width="512" height="512" viewBox="0 0 512 512" fill="none" xmlns="http://www.w3.org/2000/svg">
<path d="M152.143 101.785C152.143 101.785 146.851 93.6917 147.356 91.0401C147.861 88.3884 209.607 74.3726 215.542 73.2362C221.476 72.0997 219.286 86.0715 219.286 86.0715C219.286 86.0715 171.45 103.944 152.143 101.785Z" fill="#171D8F"/>
<path d="M219.286 86.0713L245.654 108.882L263.572 135.357L221.786 175.357L203.215 112.5L219.286 86.0713Z" fill="#171D8F"/>
<path d="M219.631 86.208L152.383 101.946L138.84 127.853C138.84 127.853 134.937 135.409 134.937 143.404C134.937 164.39 133.354 219.012 130.516 237.254C126.975 260.018 166.939 267.606 166.939 267.606L245.349 242.819C245.349 242.819 225.985 151.095 217.939 121.067C216.179 114.502 217.273 107.47 217.273 107.47L219.631 86.208Z" fill="#7738C7"/>
<path d="M265 256.429C265 256.429 285.357 188.571 302.5 166.429C319.643 144.286 331.786 149.286 339.643 140.714C347.5 132.143 348.571 122.5 348.571 122.5L382.857 130.357C382.857 130.357 377.857 144.286 382.5 156.071C387.143 167.857 408.929 171.071 387.143 237.143C365.357 303.214 265 256.429 265 256.429Z" fill="#FF4B3D"/>
<path d="M317.649 152.607C313.234 155.472 308.351 159.749 302.977 166.69C285.807 188.867 265.418 256.831 265.418 256.831C265.418 256.831 365.933 303.691 387.753 237.516C397.006 209.453 398.398 192.735 396.593 181.86C381.892 206.48 375.476 197.737 368.795 193.697C361.105 189.047 335.707 206.216 325.87 194.233C317.004 183.432 313.973 170.723 317.649 152.607Z" fill="#CF1531"/>
<path d="M223.596 165.673C223.596 165.673 214.743 182.62 203.614 192.485C192.485 202.349 187.174 200.072 179.586 194.507C171.998 188.943 163.144 184.644 153.027 195.521C144.385 204.81 143.096 204.827 133.613 192.039C133.025 207.358 132.237 222.346 131.172 232.123C131.206 232.147 131.239 232.172 131.274 232.195C137.597 236.495 134.563 238.519 149.992 241.302C165.422 244.084 156.821 245.855 183.379 245.349C193.152 245.163 199.625 250.861 204.637 255.689L222.924 249.909C224.076 246.823 225.3 243.068 226.631 238.518C231.099 223.231 234.41 213.038 236.895 205.589C233.993 192.815 232.655 186.89 229.224 171.671C226.491 168.749 223.596 165.673 223.596 165.673Z" fill="#171D8F"/>
<path d="M192.435 247.992C192.435 247.992 258.6 25 310.622 25C362.645 25 285.874 241.426 285.874 241.426L192.435 247.992Z" fill="#FFC517"/>
<path d="M285.123 183.157C279.874 183.189 274.437 187.551 267.355 190.966C253.19 197.795 248.889 200.579 235.736 190.461C229.035 185.306 219.456 187.576 211.66 191.038C205.327 208.902 200.41 223.924 197.133 234.247C204.355 234.559 240.496 240.574 286.324 241.806C286.324 241.806 292.649 223.958 300.436 198.546C294.718 186.852 290.001 183.128 285.123 183.157Z" fill="#FFAC17"/>
<path d="M216.161 487C216.161 487 88.8815 487.398 71.7089 474.266C54.5363 461.134 104.539 320.218 114.64 267.69C124.742 215.162 122.722 184.858 130.298 191.424C137.874 197.99 136.864 211.627 149.996 205.566C163.128 199.505 166.663 185.363 175.25 193.444C183.836 201.525 185.856 207.081 198.483 204.051C211.11 201.02 216.666 186.373 228.283 198.495C239.899 210.617 247.475 202.535 265.658 195.464C283.841 188.393 284.346 200.515 293.437 206.576C302.529 212.637 311.115 186.373 320.206 199C329.298 211.627 338.894 212.132 351.016 200.515C363.138 188.898 370.714 197.485 375.765 204.051C380.816 210.617 385.866 206.071 391.422 198.495C396.978 190.919 404.049 183.342 408.09 204.051C412.13 224.759 409.605 307.591 422.232 379.817C434.859 452.043 438.899 487 417.686 487C396.473 487 216.161 487 216.161 487Z" fill="#D0D5DD"/>
<path d="M400.879 190.662C397.754 190.446 394.373 194.469 391.422 198.494C385.866 206.07 380.816 210.617 375.766 204.051C372.074 199.252 367.03 193.384 359.852 195.104C359.691 202.656 359.629 220.104 361.492 243.951C364.018 276.276 349.37 344.967 359.977 381.332C370.583 417.698 369.069 478 352.906 487H417.686C438.899 487 434.859 452.042 422.232 379.816C409.605 307.591 412.13 224.759 408.09 204.051C406.196 194.344 403.636 190.853 400.879 190.662Z" fill="#98A2B3"/>
<path d="M264.913 88.3884C264.913 88.3884 279.56 82.58 294.713 88.8935C309.865 95.2069 301.531 86.6206 290.42 79.0445C279.308 71.4683 253.802 91.4188 264.913 88.3884Z" fill="white"/>
<path d="M246.635 126.017C246.635 126.017 264.505 120.208 282.991 126.522C301.478 132.835 291.31 124.249 277.754 116.673C264.197 109.097 233.078 129.047 246.635 126.017Z" fill="white"/>
<path d="M231.736 163.897C231.736 163.897 249.606 158.089 268.092 164.402C286.578 170.716 276.411 162.129 262.854 154.553C249.298 146.977 218.179 166.928 231.736 163.897Z" fill="white"/>
<path d="M349.19 100.503C349.19 100.503 341.324 117.58 344.969 122.089C348.615 126.598 381.041 134.56 386.03 133.793C391.018 133.025 397.35 111.248 393.8 107.219C390.251 103.189 355.81 97.3372 352.74 97.2413C349.67 97.1454 349.19 100.503 349.19 100.503Z" fill="#FFC517"/>
<path d="M143.75 126.429C143.75 126.429 141.964 133.75 154.286 130.536C166.607 127.322 188.571 119.643 191.607 120.893C194.643 122.143 144.464 136.607 139.821 136.786C135.179 136.965 140.536 125 143.75 126.429Z" fill="#171D8F"/>
<path d="M305.001 317.143C305.001 317.143 236.429 402.143 150.001 414.286C63.5722 426.429 141.429 407.143 155.715 398.572C170.001 390 238.572 362.857 272.858 324.286C307.144 285.714 322.144 293.572 305.001 317.143Z" fill="#98A2B3"/>
<path d="M251.528 409.87C251.528 409.87 313.148 403.809 329.31 408.859C345.473 413.91 341.432 444.108 330.825 459.367C320.219 474.626 237.134 471.741 234.608 461.387C232.083 451.033 230.315 412.142 251.528 409.87Z" fill="white"/>
<path d="M259.104 424.011C295.217 423.001 310.622 421.738 322.239 424.516C333.855 427.294 332.593 429.567 303.551 429.82C274.509 430.072 261.124 431.082 254.558 430.072C247.992 429.062 248.497 424.011 259.104 424.011Z" fill="#1570EF"/>
<path d="M258.852 445.982C267.453 445.982 286.379 443.962 297.995 446.74C309.612 449.518 299.512 452.043 279.308 452.043C273.247 452.043 260.872 453.053 254.306 452.043C247.74 451.033 248.245 445.982 258.852 445.982Z" fill="#1570EF"/>
<path d="M392.479 237.019C391.056 237.371 390.079 269.218 388.827 280.799C387.396 294.034 385.964 330.52 392.403 358.779C398.842 387.038 399.558 452.856 393.835 466.806C391.663 472.101 385.622 480 378.968 487.767H412.022C410.844 482.505 409.27 476.388 407.785 473.602C404.923 468.236 405.995 455.002 407.069 439.263C408.142 423.524 405.281 389.54 398.127 351.981C390.973 314.422 394.907 250.037 393.119 238.948C392.895 237.562 392.683 236.969 392.479 237.019Z" fill="#E4E7EC"/>
</svg>
