<?xml version="1.0" encoding="UTF-8"?>
<svg id="Layer_2" data-name="Layer 2" xmlns="http://www.w3.org/2000/svg" xmlns:xlink="http://www.w3.org/1999/xlink" viewBox="0 0 2360.32 2677.47">
  <defs>
    <style>
      .cls-1 {
        fill: url(#New_Pattern);
      }

      .cls-2 {
        fill: none;
      }

      .cls-3 {
        fill: #2e3535;
      }
    </style>
    <pattern id="New_Pattern" data-name="New Pattern" x="0" y="0" width="781.5" height="456.23" patternTransform="translate(543.39 862.83)" patternUnits="userSpaceOnUse" viewBox="0 0 781.5 456.23">
      <g>
        <rect class="cls-2" x="0" width="781.5" height="456.23"/>
        <g>
          <path class="cls-3" d="m671.15,344.06c-.32-.42-.45-.96-.38-1.48l9.8-68.89c.07-.53.36-1,.78-1.32.42-.32.95-.46,1.48-.38,2.96.42,5.92.77,8.9,1.07,1.06-10.96,10.31-19.56,21.54-19.56,5.78,0,11.22,2.25,15.31,6.34,3.59,3.59,5.76,8.22,6.24,13.21,2.97-.3,5.94-.65,8.89-1.07.53-.07,1.06.06,1.48.38.42.32.7.79.78,1.32l9.8,68.89c.16,1.09-.61,2.11-1.7,2.26-13.47,1.92-27.2,2.89-40.81,2.89s-27.34-.97-40.81-2.89c-.53-.08-1-.35-1.32-.78Zm24.57-70.64c11.67.95,23.45.95,35.12,0-.39-4.06-2.16-7.82-5.08-10.75-3.33-3.33-7.77-5.17-12.48-5.17-9.15,0-16.69,6.99-17.56,15.91Zm-20.71,67.73c12.65,1.71,25.51,2.57,38.27,2.57s25.62-.87,38.27-2.57l-9.24-64.93c-2.45.33-4.91.61-7.38.85v4.27c1.33.72,2.24,2.1,2.24,3.72,0,2.34-1.9,4.24-4.24,4.24s-4.24-1.9-4.24-4.24c0-1.62.91-3,2.24-3.72v-3.92c-11.73.94-23.57.94-35.3,0v3.92c1.33.72,2.24,2.1,2.24,3.72,0,2.34-1.9,4.24-4.24,4.24s-4.24-1.9-4.24-4.24c0-1.62.91-3,2.24-3.72v-4.27c-2.46-.24-4.93-.53-7.38-.85l-9.24,64.93Z"/>
          <path class="cls-3" d="m771.47,216.65h11.72l14.33,69.32c.19.93,1.01,1.6,1.96,1.6h74.61c.95,0,1.76-.66,1.96-1.59l10-47.33c.12-.59-.02-1.2-.4-1.67-.38-.47-.95-.74-1.55-.74h-60.64c-1.11,0-2,.9-2,2s.89,2,2,2h58.17l-5.81,27.48h-58.45c-1.11,0-2,.9-2,2s.89,2,2,2h57.61l-2.5,11.85h-71.36l-5.69-27.52h57.72c1.11,0,2-.9,2-2s-.89-2-2-2h-58.55l-7.81-37.8c-.19-.93-1.01-1.6-1.96-1.6h-13.35c-1.11,0-2,.9-2,2s.89,2,2,2Z"/>
          <g>
            <path class="cls-3" d="m677.91,444.38l65.6-65.6c.43-.43,1.02-.64,1.62-.58s1.14.39,1.47.9l26.4,40.54c.52.79.41,1.84-.26,2.5l-52.76,52.76c-.67.67-1.72.78-2.51.26l-11.14-7.32s0,0,0,0l-29-19.07c-.17-.08-.34-.19-.49-.32l-18.51-12.17-8.29,8.29c-.78.78-2.05.78-2.83,0-.78-.78-.78-2.05,0-2.83l9.44-9.44c.67-.67,1.72-.78,2.51-.26l18.76,12.33Zm81.12-38.85v24.67l9.73-9.73-9.73-14.94Zm-12.4-19.04v56.1l8.4-8.4v-34.63c0-.05.01-.11.02-.16l-8.41-12.92Zm-12.4,7.42v61.08s8.43-8.43,8.43-8.43c-.01-.1-.03-.19-.03-.29v-60.96l-8.42,8.42c0,.06.02.12.02.18Zm-12.4,12.2v61.28l8.42-8.42c0-.07-.02-.13-.02-.2v-61.06s-8.4,8.4-8.4,8.4Zm-12.4,12.65v46.34l8.4,5.52v-60.52s-8.42,8.42-8.42,8.42c0,.08.02.15.02.23Zm-12.4,12.14v26.05l8.4,5.52v-39.97s-8.4,8.4-8.4,8.4Zm-15.72,15.72l11.72,7.7v-19.42l-11.72,11.72Z"/>
            <path class="cls-3" d="m777.86,441.88c-2.78,2.78-7.31,2.78-10.09,0-2.78-2.78-2.79-7.31,0-10.09s7.31-2.78,10.09,0c2.78,2.78,2.78,7.31,0,10.09Zm-2.83-7.26c-1.22-1.22-3.21-1.22-4.44,0-1.22,1.22-1.22,3.21,0,4.43,1.22,1.22,3.21,1.22,4.43,0,1.22-1.22,1.22-3.21,0-4.44Z"/>
          </g>
          <path class="cls-3" d="m566.31,426.17c-.78-.78-.78-2.05,0-2.83l37.15-37.15c.29-.29.65-.47,1.02-.55h0l19.61-3.9c.65-.13,1.33.08,1.8.55l.7.7c4.7-4.41,13.63-11.88,17.09-8.43,3.45,3.45-4.01,12.39-8.43,17.09l.7.7c.47.47.68,1.15.55,1.8l-3.9,19.61h0c-.07.37-.26.73-.55,1.02l-37.15,37.15c-.38.38-.88.59-1.42.59s-1.04-.21-1.41-.59l-25.77-25.77Zm63.12-40.35l3,3c4.74-5.07,7.23-9.05,7.95-10.95-1.89.72-5.87,3.21-10.95,7.95Zm-58.88,38.93l22.94,22.94,35.31-35.31,3.53-17.77.04-.2-2.75-2.75-3.05-3.05c-2.76,2.84-4.84,5.38-6.33,7.46.37.26.72.54,1.05.87.33.33.61.68.87,1.05.83,1.18,1.31,2.53,1.43,3.92.2,2.27-.57,4.61-2.3,6.35-3.12,3.12-8.2,3.12-11.31,0s-3.12-8.19,0-11.31c1.74-1.74,4.08-2.5,6.35-2.31,2.27-3.36,5.33-6.7,7.3-8.73l-17.77,3.53-35.31,35.31Zm48.21-24.61c-.1-.12-.18-.25-.29-.36-.11-.11-.24-.2-.36-.3-1.2-.95-2.82-1.11-4.17-.48-.41.19-.79.44-1.13.77-1.56,1.56-1.56,4.1,0,5.66,1.56,1.56,4.1,1.56,5.66,0,.34-.33.58-.72.78-1.13.63-1.35.47-2.96-.48-4.17Z"/>
        </g>
        <path class="cls-3" d="m380.72,444.76h11.72l14.33,69.32c.19.93,1.01,1.6,1.96,1.6h74.61c.95,0,1.76-.66,1.96-1.59l10-47.33c.12-.59-.02-1.2-.4-1.67-.38-.47-.95-.74-1.55-.74h-60.64c-1.11,0-2,.9-2,2s.89,2,2,2h58.17l-5.81,27.48h-58.45c-1.11,0-2,.9-2,2s.89,2,2,2h57.61l-2.5,11.85h-71.36l-5.69-27.52h57.72c1.11,0,2-.9,2-2s-.89-2-2-2h-58.55l-7.81-37.8c-.19-.93-1.01-1.59-1.96-1.59h-13.35c-1.11,0-2,.9-2,2s.89,2,2,2Z"/>
        <g>
          <path class="cls-3" d="m113.72,432.71H29.55c-.61,0-1.18-.27-1.56-.74-.38-.47-.53-1.09-.4-1.68l15.5-71.68c.2-.92,1.01-1.58,1.96-1.58h9.57c.13-9.28,7.71-16.79,17.02-16.79,4.55,0,8.83,1.77,12.04,4.99,3.16,3.16,4.92,7.35,4.97,11.81h9.57c.94,0,1.76.66,1.96,1.58l15.5,71.68c.13.59-.02,1.21-.4,1.68-.38.47-.95.74-1.56.74Zm-55.1-75.68h26.03c-.06-3.39-1.4-6.57-3.8-8.98-2.46-2.46-5.73-3.82-9.21-3.82-7.11,0-12.89,5.72-13.02,12.79Zm52.62,71.68l-14.64-67.68h-7.95v4.03c1.13.68,1.9,1.91,1.9,3.33,0,2.15-1.74,3.9-3.9,3.9s-3.9-1.75-3.9-3.9c0-1.42.77-2.65,1.9-3.33v-4.03h-26.05v4.03c1.13.68,1.9,1.91,1.9,3.33,0,2.15-1.75,3.9-3.9,3.9s-3.9-1.75-3.9-3.9c0-1.42.77-2.65,1.9-3.33v-4.03h-7.94l-14.64,67.68h79.22Z"/>
          <g>
            <path class="cls-3" d="m-10.03,216.65H1.7l14.33,69.32c.19.93,1.01,1.6,1.96,1.6h74.61c.95,0,1.76-.66,1.96-1.59l10-47.33c.12-.59-.02-1.2-.4-1.67-.38-.47-.95-.74-1.55-.74h-60.64c-1.11,0-2,.9-2,2s.89,2,2,2h58.17l-5.81,27.48h-58.45c-1.11,0-2,.9-2,2s.89,2,2,2h57.61l-2.5,11.85H19.62l-5.69-27.52h57.72c1.11,0,2-.9,2-2s-.89-2-2-2H13.1l-7.81-37.8c-.19-.93-1.01-1.6-1.96-1.6h-13.35c-1.11,0-2,.9-2,2s.89,2,2,2Z"/>
            <path class="cls-3" d="m82.27,305.15c-3.93,0-7.13-3.2-7.13-7.14s3.2-7.14,7.13-7.14,7.14,3.2,7.14,7.14-3.2,7.14-7.14,7.14Zm0-4c1.73,0,3.14-1.41,3.14-3.14s-1.41-3.14-3.14-3.14-3.13,1.41-3.13,3.14,1.41,3.14,3.13,3.14Z"/>
            <path class="cls-3" d="m27.55,305.15c-3.94,0-7.14-3.2-7.14-7.14s3.2-7.14,7.14-7.14,7.14,3.2,7.14,7.14-3.2,7.14-7.14,7.14Zm0-4c1.73,0,3.14-1.41,3.14-3.14s-1.41-3.14-3.14-3.14-3.14,1.41-3.14,3.14,1.41,3.14,3.14,3.14Z"/>
          </g>
          <path class="cls-3" d="m128.21,523.77c3.99,3.99,3.99,10.47,0,14.46-1.93,1.93-4.5,3-7.23,3s-5.3-1.06-7.23-3c-.09-.08-.16-.18-.23-.27l-24.97-36.03c-4.71,3.94-10.59,6.09-16.8,6.09h0c-7.01,0-13.6-2.73-18.56-7.69-4.96-4.96-7.69-11.55-7.69-18.56s2.73-13.6,7.69-18.56c4.96-4.96,11.55-7.69,18.56-7.69s13.6,2.73,18.56,7.69c4.96,4.96,7.69,11.55,7.69,18.56,0,6.21-2.15,12.09-6.09,16.8l36.03,24.97c.1.07.19.14.28.23Zm-34.21-42c0-5.94-2.31-11.53-6.52-15.73-4.2-4.2-9.79-6.52-15.73-6.52s-11.53,2.31-15.73,6.52c-4.2,4.2-6.52,9.79-6.52,15.73s2.31,11.53,6.52,15.73c4.2,4.2,9.79,6.52,15.73,6.52s11.53-2.31,15.73-6.52c4.2-4.2,6.52-9.79,6.52-15.73Zm31.5,44.95l-28.68-19.88,19.87,28.68c1.16,1.1,2.68,1.71,4.28,1.71s3.23-.65,4.4-1.82c2.39-2.39,2.43-6.25.12-8.68Z"/>
          <g>
            <path class="cls-3" d="m245.73,366.38c0,5.2-3.87,9.84-8.79,11.13v59.12c0,1.1-.89,2-2,2h-76.5c-1.1,0-2-.9-2-2v-58.91c-5.42-.89-9.71-5.71-9.71-11.34s7.52-16.88,8.38-18.16c.37-.55.99-.88,1.66-.88h78.92c.67,0,1.3.34,1.67.9.86,1.3,8.37,12.82,8.37,18.14Zm-66.79,37h-18.5v31.25h18.5v-31.25Zm54-14.5h-50v45.75h50v-45.75Zm0-11.08c-3.4-.38-6.37-2.26-8.21-4.95-2.07,3.03-5.56,5.03-9.5,5.03s-7.43-2-9.5-5.03c-2.07,3.03-5.56,5.03-9.5,5.03s-7.43-2-9.5-5.03c-2.07,3.03-5.56,5.03-9.5,5.03s-7.43-2-9.5-5.03c-1.68,2.45-4.27,4.22-7.29,4.81v21.72h18.5v-12.5c0-1.1.9-2,2-2h52v-7.08Zm8.79-11.42c0-2.91-4.15-10.4-7.12-15.04h-76.76c-2.97,4.57-7.12,11.99-7.12,15.04,0,4.06,3.44,7.5,7.5,7.5s7.5-3.36,7.5-7.5c0-1.11.9-2,2-2s2,.89,2,2c0,4.13,3.37,7.5,7.5,7.5s7.5-3.36,7.5-7.5c0-1.11.9-2,2-2s2,.89,2,2c0,4.13,3.37,7.5,7.5,7.5s7.5-3.36,7.5-7.5c0-1.11.9-2,2-2s2,.89,2,2c0,4.13,3.37,7.5,7.5,7.5s7.5-3.36,7.5-7.5c0-1.11.9-2,2-2s2,.89,2,2c0,4.13,3.37,7.5,7.5,7.5s7.5-3.58,7.5-7.5Z"/>
            <path class="cls-3" d="m195.07,410.05c.51,0,1.02-.2,1.41-.59l9.02-9.02c.78-.78.78-2.05,0-2.83-.78-.78-2.05-.78-2.83,0l-9.02,9.02c-.78.78-.78,2.05,0,2.83.39.39.9.58,1.41.58Z"/>
            <path class="cls-3" d="m195.07,427.43c.51,0,1.02-.2,1.41-.59l26.4-26.4c.78-.78.78-2.05,0-2.83-.78-.78-2.05-.78-2.83,0l-26.4,26.4c-.78.78-.78,2.05,0,2.83.39.39.9.58,1.41.58Z"/>
            <path class="cls-3" d="m220.05,415l-9.02,9.02c-.78.78-.78,2.05,0,2.83.39.39.9.59,1.41.59s1.02-.2,1.41-.59l9.02-9.02c.78-.78.78-2.05,0-2.83-.78-.78-2.05-.78-2.83,0Z"/>
            <path class="cls-3" d="m169.69,421.83c1.56,0,2.83-1.27,2.83-2.83s-1.27-2.83-2.83-2.83-2.83,1.27-2.83,2.83,1.27,2.83,2.83,2.83Z"/>
          </g>
        </g>
        <g>
          <g>
            <path class="cls-3" d="m677.91-11.85l65.6-65.6c.43-.43,1.02-.64,1.62-.58.6.06,1.14.39,1.47.9l26.4,40.54c.52.79.41,1.84-.26,2.51l-52.76,52.76c-.67.67-1.72.78-2.51.26l-11.14-7.32s0,0,0,0l-29-19.07c-.17-.08-.34-.19-.49-.32l-18.51-12.17-8.29,8.29c-.78.78-2.05.78-2.83,0-.78-.78-.78-2.05,0-2.83l9.44-9.44c.67-.67,1.72-.78,2.51-.26l18.76,12.33Zm81.12-38.85v24.67l9.73-9.73-9.73-14.94Zm-12.4-19.04V-13.64l8.4-8.4v-34.63c0-.05.01-.11.02-.16l-8.41-12.92Zm-12.4,7.42V-1.24s8.43-8.43,8.43-8.43c-.01-.1-.03-.19-.03-.29v-60.96l-8.42,8.42c0,.06.02.12.02.18Zm-12.4,12.2V11.16l8.42-8.42c0-.07-.02-.13-.02-.2v-61.06s-8.4,8.4-8.4,8.4Zm-12.4,12.65V8.87l8.4,5.52v-60.52s-8.42,8.42-8.42,8.42c0,.08.02.15.02.23Zm-12.4,12.14V.72l8.4,5.52v-39.97s-8.4,8.4-8.4,8.4Zm-15.72,15.72l11.72,7.7v-19.42l-11.72,11.72Z"/>
            <path class="cls-3" d="m729.07,14.26c2.78-2.78,7.31-2.78,10.09,0,2.78,2.78,2.78,7.31,0,10.09-2.78,2.78-7.31,2.78-10.09,0-2.78-2.78-2.78-7.31,0-10.09Zm2.83,2.83c-1.22,1.22-1.22,3.21,0,4.44s3.21,1.22,4.44,0,1.22-3.21,0-4.44c-1.22-1.22-3.21-1.22-4.44,0Z"/>
          </g>
          <g>
            <path class="cls-3" d="m644.34,29.89v56.54c0,1.11-.89,2-2,2h-84.29c-1.1,0-2-.89-2-2V29.89c0-1.1.9-2,2-2h84.29c1.11,0,2,.9,2,2Zm-4,19.83h-80.29v34.71h80.29v-34.71Zm0-17.83h-80.29v8h80.29v-8Z"/>
            <path class="cls-3" d="m652.37,17.87h-71.99c-1.1,0-2,.9-2,2s.9,2,2,2h69.99v54.54c0,1.1.9,2,2,2s2-.9,2-2V19.87c0-1.1-.89-2-2-2Z"/>
            <path class="cls-3" d="m565.21,61.22h28.17c1.11,0,2-.9,2-2s-.89-2-2-2h-28.17c-1.1,0-2,.9-2,2s.9,2,2,2Z"/>
            <path class="cls-3" d="m565.21,70.26h15.17c1.1,0,2-.89,2-2s-.9-2-2-2h-15.17c-1.1,0-2,.9-2,2s.9,2,2,2Z"/>
            <path class="cls-3" d="m565.21,79.31h23.33c1.11,0,2-.9,2-2s-.89-2-2-2h-23.33c-1.1,0-2,.89-2,2s.9,2,2,2Z"/>
            <path class="cls-3" d="m592.38,77.31c0,1.1.9,2,2,2h21.71c1.11,0,2-.9,2-2s-.89-2-2-2h-21.71c-1.1,0-2,.89-2,2Z"/>
            <path class="cls-3" d="m622.52,79.31h12.67c1.11,0,2-.9,2-2s-.89-2-2-2h-12.67c-1.1,0-2,.89-2,2s.9,2,2,2Z"/>
          </g>
          <path class="cls-3" d="m807.3,116.92l-13,13c-.78.78-2.05.78-2.83,0l-4.85-4.84-31.83,31.83c-.78.78-2.05.78-2.83,0l-50.85-50.85c-.78-.78-.78-2.05,0-2.83l31.83-31.83-4.84-4.84c-.78-.78-.78-2.05,0-2.83l13-13c.78-.78,2.05-.78,2.83,0l20.2,20.2c-.31-.65-.6-1.3-.83-1.95-1.04-2.87-.86-5.64.49-7.8,1.2-1.92,3.21-3.2,5.37-3.43,1.78-.19,3.59.54,5.1,2.04,1.84,1.84,2.94,4.53,3.02,7.38.09,3.29-.66,6.61-1.43,9.1,4.16-1.36,10.71-3.17,16.15-3.17,4.76,0,7.59,1.83,9.12,3.36,2.45,2.44,3.51,6.11,2.72,9.35-.56,2.29-2.05,4.21-4.19,5.42-2.16,1.23-5.97,2.31-11.85.51-1.65-.51-3.51-1.42-5.37-2.5l24.86,24.86c.78.78.78,2.05,0,2.83Zm-30.81-36.65c3.24,2.53,8.69,6.47,12.5,7.64,3.52,1.08,6.61,1.02,8.7-.16,1.19-.67,1.97-1.68,2.27-2.9.35-1.45.13-3.77-1.66-5.57-1.43-1.43-3.61-2.19-6.29-2.19-5.15,0-11.67,1.89-15.52,3.18Zm-4.64-4.62c.74-2.23,1.53-5.36,1.44-8.38-.05-1.81-.74-3.55-1.85-4.66-.63-.63-1.3-.95-1.84-.89-.7.07-1.75.53-2.4,1.57-.7,1.12-.74,2.61-.12,4.32,1,2.77,3.15,5.89,4.78,8.04Zm-30.36,38.06l-22.31-22.31c-.1-.1-.18-.2-.25-.31l-13.56,13.56,22.6,22.6,13.53-13.53Zm16.89-16.89l-22.6-22.6-14.09,14.09c.11.07.21.16.31.25l22.31,22.31,14.06-14.06Zm8.56,42.28c-.11-.07-.21-.16-.31-.25l-22.32-22.32-13.53,13.53,22.6,22.6,13.56-13.56Zm16.86-16.86l-22.6-22.6-14.06,14.06,22.31,22.32c.1.1.18.2.25.31l14.09-14.09Zm19.26-6.74l-60.54-60.54-10.17,10.17,60.54,60.54,10.17-10.17Z"/>
          <path class="cls-3" d="m746.1,213.96c-.36.93-1.45,2.49-4.77,2.49h-85.09c-3.32,0-4.41-1.56-4.77-2.49-.37-.98-.6-2.99,2.16-5.48l38.87-35.18c1.2-1.09,2.68-1.82,4.29-2.15v-3.66c0-1.1.9-2,2-2,4.19,0,7.59-3.4,7.59-7.59s-3.4-7.59-7.59-7.59-7.59,3.4-7.59,7.59c0,1.1-.9,2-2,2s-2-.9-2-2c0-6.39,5.2-11.59,11.59-11.59s11.59,5.2,11.59,11.59c0,5.71-4.15,10.46-9.59,11.41v1.83c1.61.33,3.09,1.07,4.29,2.15l38.87,35.18c2.75,2.49,2.53,4.5,2.16,5.48Zm-3.98-1.57c-.16-.23-.43-.55-.86-.94l-38.87-35.18c-.95-.86-2.23-1.33-3.61-1.33s-2.66.47-3.61,1.33l-38.87,35.18c-.43.39-.69.71-.85.94.19.03.45.06.78.06h85.09c.33,0,.59-.03.78-.06Z"/>
        </g>
        <g>
          <path class="cls-3" d="m504.47,204.6h-84.18c-.61,0-1.18-.27-1.56-.74-.38-.47-.53-1.09-.4-1.68l15.5-71.68c.2-.92,1.01-1.58,1.96-1.58h9.57c.13-9.28,7.71-16.79,17.02-16.79,4.55,0,8.83,1.77,12.04,4.99,3.16,3.16,4.92,7.35,4.97,11.81h9.57c.94,0,1.76.66,1.96,1.58l15.5,71.68c.13.59-.02,1.21-.4,1.68-.38.47-.95.74-1.56.74Zm-55.1-75.68h26.03c-.06-3.39-1.4-6.57-3.8-8.98-2.46-2.46-5.73-3.82-9.21-3.82-7.11,0-12.89,5.72-13.02,12.79Zm52.62,71.68l-14.64-67.68h-7.95v4.03c1.13.68,1.9,1.91,1.9,3.33,0,2.15-1.74,3.9-3.9,3.9s-3.9-1.75-3.9-3.9c0-1.42.77-2.65,1.9-3.33v-4.03h-26.05v4.03c1.13.68,1.9,1.91,1.9,3.33,0,2.15-1.75,3.9-3.9,3.9s-3.9-1.75-3.9-3.9c0-1.42.77-2.65,1.9-3.33v-4.03h-7.94l-14.64,67.68h79.22Z"/>
          <path class="cls-3" d="m280.4,115.94c-.32-.42-.45-.96-.38-1.48l9.8-68.89c.07-.53.36-1,.78-1.32.42-.32.95-.46,1.48-.38,2.96.42,5.92.77,8.9,1.07,1.06-10.96,10.31-19.56,21.54-19.56,5.78,0,11.22,2.25,15.31,6.34,3.59,3.59,5.76,8.22,6.24,13.21,2.97-.3,5.94-.65,8.89-1.07.53-.07,1.06.06,1.48.38.42.32.7.79.78,1.32l9.8,68.89c.16,1.09-.61,2.11-1.7,2.26-13.47,1.92-27.2,2.89-40.81,2.89s-27.34-.97-40.81-2.89c-.53-.07-1-.35-1.32-.78Zm24.57-70.64c11.67.95,23.45.95,35.12,0-.39-4.06-2.16-7.82-5.08-10.75-3.33-3.33-7.77-5.17-12.48-5.17-9.15,0-16.69,6.99-17.56,15.91Zm-20.71,67.73c12.65,1.71,25.51,2.57,38.27,2.57s25.62-.87,38.27-2.57l-9.24-64.93c-2.45.33-4.91.61-7.38.85v4.27c1.33.72,2.24,2.1,2.24,3.72,0,2.34-1.9,4.24-4.24,4.24s-4.24-1.9-4.24-4.24c0-1.62.91-3,2.24-3.72v-3.91c-11.73.94-23.57.94-35.3,0v3.91c1.33.72,2.24,2.1,2.24,3.72,0,2.34-1.9,4.24-4.24,4.24s-4.24-1.9-4.24-4.24c0-1.62.91-3,2.24-3.72v-4.27c-2.46-.24-4.93-.53-7.38-.85l-9.24,64.93Z"/>
          <g>
            <path class="cls-3" d="m380.72-11.47h11.72l14.33,69.32c.19.93,1.01,1.6,1.96,1.6h74.61c.95,0,1.76-.66,1.96-1.59l10-47.33c.12-.59-.02-1.2-.4-1.67-.38-.47-.95-.74-1.55-.74h-60.64c-1.11,0-2,.9-2,2s.89,2,2,2h58.17l-5.81,27.48h-58.45c-1.11,0-2,.9-2,2s.89,2,2,2h57.61l-2.5,11.85h-71.36l-5.69-27.52h57.72c1.11,0,2-.9,2-2s-.89-2-2-2h-58.55l-7.81-37.8c-.19-.93-1.01-1.6-1.96-1.6h-13.35c-1.11,0-2,.9-2,2s.89,2,2,2Z"/>
            <path class="cls-3" d="m473.02,77.03c-3.93,0-7.13-3.2-7.13-7.14s3.2-7.14,7.13-7.14,7.14,3.2,7.14,7.14-3.2,7.14-7.14,7.14Zm0-4c1.73,0,3.14-1.41,3.14-3.14s-1.41-3.14-3.14-3.14-3.13,1.41-3.13,3.14,1.41,3.14,3.13,3.14Z"/>
            <path class="cls-3" d="m418.3,77.03c-3.94,0-7.14-3.2-7.14-7.14s3.2-7.14,7.14-7.14,7.14,3.2,7.14,7.14-3.2,7.14-7.14,7.14Zm0-4c1.73,0,3.14-1.41,3.14-3.14s-1.41-3.14-3.14-3.14-3.14,1.41-3.14,3.14,1.41,3.14,3.14,3.14Z"/>
          </g>
          <g>
            <path class="cls-3" d="m287.16,216.26l65.6-65.6c.43-.43,1.02-.64,1.62-.58.6.06,1.14.39,1.47.9l26.4,40.54c.52.79.41,1.84-.26,2.51l-52.76,52.76c-.67.67-1.72.78-2.51.26l-11.14-7.32s0,0,0,0l-29-19.07c-.17-.08-.34-.19-.49-.32l-18.51-12.17-8.29,8.29c-.78.78-2.05.78-2.83,0-.78-.78-.78-2.05,0-2.83l9.44-9.44c.67-.67,1.72-.78,2.51-.26l18.76,12.33Zm81.12-38.85v24.67l9.73-9.73-9.73-14.94Zm-12.4-19.04v56.1l8.4-8.4v-34.63c0-.05.01-.11.02-.16l-8.41-12.92Zm-12.4,7.42v61.08s8.43-8.43,8.43-8.43c-.01-.1-.03-.19-.03-.29v-60.96l-8.42,8.42c0,.06.02.12.02.18Zm-12.4,12.2v61.28l8.42-8.42c0-.07-.02-.13-.02-.2v-61.06s-8.4,8.4-8.4,8.4Zm-12.4,12.65v46.34l8.4,5.52v-60.52s-8.42,8.42-8.42,8.42c0,.08.02.15.02.23Zm-12.4,12.14v26.05l8.4,5.52v-39.97s-8.4,8.4-8.4,8.4Zm-15.72,15.72l11.72,7.7v-19.42l-11.72,11.72Z"/>
            <path class="cls-3" d="m387.11,213.77c-2.78,2.78-7.31,2.78-10.09,0-2.78-2.78-2.79-7.31,0-10.09,2.78-2.78,7.31-2.78,10.09,0,2.78,2.78,2.78,7.31,0,10.09Zm-2.83-7.27c-1.22-1.22-3.21-1.22-4.44,0-1.22,1.22-1.22,3.21,0,4.43,1.22,1.22,3.21,1.22,4.43,0,1.22-1.22,1.22-3.21,0-4.44Z"/>
            <path class="cls-3" d="m338.32,242.37c2.78-2.78,7.31-2.78,10.09,0,2.78,2.78,2.78,7.31,0,10.09-2.78,2.78-7.31,2.78-10.09,0-2.78-2.78-2.78-7.31,0-10.09Zm2.83,2.83c-1.22,1.22-1.22,3.21,0,4.44,1.22,1.22,3.21,1.22,4.44,0,1.22-1.22,1.22-3.21,0-4.44-1.22-1.22-3.21-1.22-4.44,0Z"/>
          </g>
          <g>
            <path class="cls-3" d="m253.59,258v56.54c0,1.11-.89,2-2,2h-84.29c-1.1,0-2-.89-2-2v-56.54c0-1.1.9-2,2-2h84.29c1.11,0,2,.9,2,2Zm-4,19.83h-80.29v34.71h80.29v-34.71Zm0-17.83h-80.29v8h80.29v-8Z"/>
            <path class="cls-3" d="m261.62,245.98h-71.99c-1.1,0-2,.9-2,2s.9,2,2,2h69.99v54.54c0,1.1.9,2,2,2s2-.9,2-2v-56.54c0-1.1-.89-2-2-2Z"/>
            <path class="cls-3" d="m174.46,289.34h28.17c1.11,0,2-.9,2-2s-.89-2-2-2h-28.17c-1.1,0-2,.9-2,2s.9,2,2,2Z"/>
            <path class="cls-3" d="m174.46,298.38h15.17c1.1,0,2-.89,2-2s-.9-2-2-2h-15.17c-1.1,0-2,.9-2,2s.9,2,2,2Z"/>
            <path class="cls-3" d="m174.46,307.42h23.33c1.11,0,2-.9,2-2s-.89-2-2-2h-23.33c-1.1,0-2,.89-2,2s.9,2,2,2Z"/>
            <path class="cls-3" d="m201.63,305.42c0,1.1.9,2,2,2h21.71c1.11,0,2-.9,2-2s-.89-2-2-2h-21.71c-1.1,0-2,.89-2,2Z"/>
            <path class="cls-3" d="m231.77,307.42h12.67c1.11,0,2-.9,2-2s-.89-2-2-2h-12.67c-1.1,0-2,.89-2,2s.9,2,2,2Z"/>
          </g>
          <path class="cls-3" d="m175.56,198.06c-.78-.78-.78-2.05,0-2.83l37.15-37.15c.29-.29.65-.47,1.02-.55h0s19.61-3.9,19.61-3.9c.65-.13,1.33.08,1.8.55l.7.7c4.7-4.42,13.63-11.88,17.09-8.43,3.45,3.45-4.01,12.39-8.43,17.09l.7.7c.47.47.68,1.15.55,1.8l-3.9,19.61h0c-.07.37-.26.73-.55,1.02l-37.15,37.15c-.38.38-.88.59-1.42.59s-1.04-.21-1.41-.59l-25.77-25.77Zm63.12-40.35l3,3c4.74-5.07,7.23-9.06,7.95-10.95-1.89.72-5.87,3.2-10.95,7.95Zm-58.88,38.93l22.94,22.94,35.31-35.31,3.53-17.77.04-.2-2.75-2.75-3.05-3.05c-2.76,2.84-4.84,5.38-6.33,7.46.37.26.72.54,1.05.87.33.33.61.68.87,1.05.83,1.18,1.31,2.53,1.43,3.92.2,2.27-.57,4.61-2.3,6.35-3.12,3.12-8.2,3.12-11.31,0-3.12-3.12-3.12-8.19,0-11.31,1.74-1.74,4.08-2.5,6.35-2.31,2.27-3.35,5.33-6.7,7.3-8.73l-17.77,3.53-35.31,35.31Zm48.21-24.61c-.1-.12-.18-.25-.29-.36-.11-.11-.24-.2-.36-.3-1.2-.95-2.82-1.11-4.17-.48-.41.19-.79.44-1.13.77-1.56,1.56-1.56,4.1,0,5.66,1.56,1.56,4.1,1.56,5.66,0,.34-.34.58-.72.78-1.13.63-1.35.47-2.96-.48-4.17Z"/>
          <g>
            <path class="cls-3" d="m475.44,240.71c-.78-.78-2.05-.78-2.83,0-.78.78-.78,2.05,0,2.83,2.7,2.7,4.18,6.29,4.18,10.12s-1.48,7.42-4.18,10.12c-.78.78-.78,2.05,0,2.83.39.39.9.59,1.41.59s1.02-.2,1.41-.59c3.45-3.45,5.35-8.05,5.35-12.95,0-4.89-1.9-9.49-5.35-12.95Z"/>
            <path class="cls-3" d="m518.96,295.66c3.99,3.99,3.99,10.47,0,14.46-1.93,1.93-4.5,3-7.23,3s-5.3-1.06-7.23-3c-.09-.08-.16-.18-.23-.27l-24.97-36.03c-4.71,3.94-10.59,6.09-16.8,6.09h0c-7.01,0-13.6-2.73-18.56-7.69-4.96-4.96-7.69-11.55-7.69-18.56s2.73-13.6,7.69-18.56,11.55-7.69,18.56-7.69,13.6,2.73,18.56,7.69c4.96,4.96,7.69,11.55,7.69,18.56,0,6.21-2.15,12.09-6.09,16.8l36.03,24.97c.1.07.19.14.28.23Zm-34.21-42c0-5.94-2.31-11.53-6.52-15.73-4.2-4.2-9.79-6.52-15.73-6.52s-11.53,2.31-15.73,6.52c-4.2,4.2-6.52,9.79-6.52,15.73s2.31,11.53,6.52,15.73c4.2,4.2,9.79,6.52,15.73,6.52s11.53-2.31,15.73-6.52,6.52-9.79,6.52-15.73Zm31.5,44.95l-28.68-19.87,19.87,28.68c1.16,1.1,2.68,1.71,4.28,1.71s3.23-.65,4.4-1.82c2.39-2.39,2.43-6.25.12-8.68Z"/>
          </g>
          <g>
            <path class="cls-3" d="m636.48,138.26c0,5.2-3.87,9.84-8.79,11.13v59.12c0,1.1-.89,2-2,2h-76.5c-1.1,0-2-.9-2-2v-58.91c-5.42-.89-9.71-5.71-9.71-11.34s7.52-16.88,8.38-18.16c.37-.55.99-.88,1.66-.88h78.92c.67,0,1.3.34,1.67.9.86,1.3,8.37,12.82,8.37,18.14Zm-66.79,37h-18.5v31.25h18.5v-31.25Zm54-14.5h-50v45.75h50v-45.75Zm0-11.08c-3.4-.38-6.37-2.26-8.21-4.95-2.07,3.03-5.56,5.03-9.5,5.03s-7.43-2-9.5-5.03c-2.07,3.03-5.56,5.03-9.5,5.03s-7.43-2-9.5-5.03c-2.07,3.03-5.56,5.03-9.5,5.03s-7.43-2-9.5-5.03c-1.68,2.45-4.27,4.22-7.29,4.81v21.72h18.5v-12.5c0-1.1.9-2,2-2h52v-7.08Zm8.79-11.42c0-2.91-4.15-10.4-7.12-15.04h-76.76c-2.97,4.57-7.12,11.99-7.12,15.04,0,4.06,3.44,7.5,7.5,7.5s7.5-3.36,7.5-7.5c0-1.1.9-2,2-2s2,.9,2,2c0,4.14,3.37,7.5,7.5,7.5s7.5-3.36,7.5-7.5c0-1.1.9-2,2-2s2,.9,2,2c0,4.14,3.37,7.5,7.5,7.5s7.5-3.36,7.5-7.5c0-1.1.9-2,2-2s2,.9,2,2c0,4.14,3.37,7.5,7.5,7.5s7.5-3.36,7.5-7.5c0-1.1.9-2,2-2s2,.9,2,2c0,4.14,3.37,7.5,7.5,7.5s7.5-3.57,7.5-7.5Z"/>
            <path class="cls-3" d="m585.82,181.94c.51,0,1.02-.2,1.41-.59l9.02-9.02c.78-.78.78-2.05,0-2.83-.78-.78-2.05-.78-2.83,0l-9.02,9.02c-.78.78-.78,2.05,0,2.83.39.39.9.59,1.41.59Z"/>
            <path class="cls-3" d="m585.82,199.32c.51,0,1.02-.2,1.41-.59l26.4-26.4c.78-.78.78-2.05,0-2.83-.78-.78-2.05-.78-2.83,0l-26.4,26.4c-.78.78-.78,2.05,0,2.83.39.39.9.59,1.41.59Z"/>
            <path class="cls-3" d="m610.8,186.88l-9.02,9.02c-.78.78-.78,2.05,0,2.83.39.39.9.59,1.41.59s1.02-.2,1.41-.59l9.02-9.02c.78-.78.78-2.05,0-2.83-.78-.78-2.05-.78-2.83,0Z"/>
            <path class="cls-3" d="m560.44,193.71c1.56,0,2.83-1.27,2.83-2.83s-1.27-2.83-2.83-2.83-2.83,1.27-2.83,2.83,1.27,2.83,2.83,2.83Z"/>
          </g>
          <path class="cls-3" d="m416.55,345.03l-13,13c-.78.78-2.05.78-2.83,0l-4.85-4.84-31.83,31.83c-.78.78-2.05.78-2.83,0l-50.85-50.85c-.78-.78-.78-2.05,0-2.83l31.83-31.83-4.84-4.84c-.78-.78-.78-2.05,0-2.83l13-13c.78-.78,2.05-.78,2.83,0l20.2,20.2c-.31-.65-.6-1.3-.83-1.95-1.04-2.87-.86-5.64.49-7.8,1.2-1.92,3.21-3.2,5.37-3.43,1.78-.19,3.59.54,5.1,2.04,1.84,1.84,2.94,4.53,3.02,7.38.09,3.29-.66,6.61-1.43,9.1,4.16-1.36,10.71-3.17,16.15-3.17,4.76,0,7.59,1.83,9.12,3.36,2.45,2.44,3.51,6.11,2.72,9.35-.56,2.29-2.05,4.21-4.19,5.42-2.16,1.23-5.97,2.31-11.85.51-1.65-.51-3.51-1.42-5.37-2.5l24.86,24.86c.78.78.78,2.05,0,2.83Zm-30.81-36.65c3.24,2.53,8.69,6.47,12.5,7.64,3.52,1.08,6.61,1.02,8.7-.16,1.19-.67,1.97-1.68,2.27-2.9.35-1.45.13-3.77-1.66-5.57-1.43-1.43-3.61-2.19-6.29-2.19-5.15,0-11.67,1.89-15.52,3.18Zm-4.64-4.62c.74-2.23,1.53-5.36,1.44-8.38-.05-1.81-.74-3.55-1.85-4.66-.63-.63-1.3-.95-1.84-.89-.7.07-1.75.53-2.4,1.57-.7,1.12-.74,2.61-.12,4.32,1,2.77,3.15,5.89,4.78,8.04Zm-30.36,38.06l-22.31-22.31c-.1-.1-.18-.2-.25-.31l-13.56,13.56,22.6,22.6,13.53-13.53Zm16.89-16.89l-22.6-22.6-14.09,14.09c.11.07.21.16.31.25l22.31,22.31,14.06-14.06Zm8.56,42.28c-.11-.07-.21-.16-.31-.25l-22.32-22.32-13.53,13.53,22.6,22.6,13.56-13.56Zm16.86-16.86l-22.6-22.6-14.06,14.06,22.31,22.32c.1.1.18.2.25.31l14.09-14.09Zm19.26-6.74l-60.54-60.54-10.17,10.17,60.54,60.54,10.17-10.17Z"/>
          <g>
            <path class="cls-3" d="m584.69,278.01c0-4.37,3.56-7.93,7.93-7.93s7.93,3.56,7.93,7.93c0,4.37-3.56,7.93-7.93,7.93s-7.93-3.56-7.93-7.93Zm5,0c0,1.62,1.31,2.93,2.93,2.93s2.93-1.31,2.93-2.93-1.32-2.93-2.93-2.93-2.93,1.31-2.93,2.93Z"/>
            <path class="cls-3" d="m610,310.75c0,4.37-3.56,7.93-7.93,7.93h0c-4.37,0-7.93-3.56-7.93-7.93s3.56-7.93,7.93-7.93c4.37,0,7.93,3.56,7.93,7.93Zm-5,0c0-1.62-1.31-2.93-2.93-2.93-1.61,0-2.93,1.32-2.93,2.93s1.31,2.93,2.93,2.93c1.62,0,2.93-1.31,2.93-2.93Z"/>
            <path class="cls-3" d="m616.77,271.42l-42.38,42.38c-.98.98-.98,2.56,0,3.54.49.49,1.13.73,1.77.73s1.28-.24,1.77-.73l42.38-42.38c.98-.98.98-2.56,0-3.54-.98-.98-2.56-.98-3.54,0Z"/>
            <path class="cls-3" d="m638.21,294.38c0,22.87-18.6,41.47-41.47,41.47s-41.47-18.6-41.47-41.47,18.6-41.47,41.47-41.47,41.47,18.6,41.47,41.47Zm-4,0c0-20.66-16.81-37.47-37.47-37.47s-37.47,16.81-37.47,37.47,16.81,37.47,37.47,37.47,37.47-16.81,37.47-37.47Z"/>
          </g>
          <g>
            <path class="cls-3" d="m490.71,326.44c.59.05,1.13.37,1.47.86l25.18,36.63c.31.45.4.99.31,1.5l23.45,23.45c.78.78.78,2.05,0,2.83l-46.92,46.92c-.78.78-2.05.78-2.83,0l-24.49-24.49-36.48-25.08c-.49-.34-.8-.87-.86-1.47-.05-.59.16-1.18.58-1.6l58.98-58.98c.42-.42,1.01-.63,1.6-.58Zm24.38,42.07l-44.09,44.09,21.79,21.79,44.09-44.09-21.79-21.79Zm-24.85-36.96l-55.58,55.58,33.28,22.87,45.18-45.18-22.88-33.28Z"/>
            <polygon class="cls-3" points="480.36 411.67 477.38 414.66 479.82 417.1 482.81 414.12 480.36 411.67"/>
            <polygon class="cls-3" points="485.66 406.38 482.67 409.37 485.11 411.81 488.1 408.82 485.66 406.38"/>
            <polygon class="cls-3" points="490.95 401.08 487.96 404.07 490.41 406.51 493.4 403.53 490.95 401.08"/>
            <polygon class="cls-3" points="496.25 395.79 493.26 398.78 495.7 401.22 498.69 398.23 496.25 395.79"/>
            <polygon class="cls-3" points="501.54 390.5 498.56 393.48 501 395.92 503.98 392.94 501.54 390.5"/>
            <polygon class="cls-3" points="506.84 385.2 503.85 388.19 506.29 390.63 509.28 387.64 506.84 385.2"/>
            <polygon class="cls-3" points="512.13 379.91 509.14 382.89 511.59 385.33 514.57 382.35 512.13 379.91"/>
            <polygon class="cls-3" points="517.43 374.61 514.44 377.6 516.88 380.04 519.87 377.05 517.43 374.61"/>
            <polygon class="cls-3" points="484.44 415.75 481.45 418.73 483.89 421.18 486.88 418.19 484.44 415.75"/>
            <polygon class="cls-3" points="489.73 410.45 486.74 413.44 489.19 415.88 492.17 412.9 489.73 410.45"/>
            <polygon class="cls-3" points="495.03 405.16 492.04 408.14 494.48 410.59 497.47 407.6 495.03 405.16"/>
            <polygon class="cls-3" points="500.32 399.86 497.33 402.85 499.78 405.29 502.76 402.31 500.32 399.86"/>
            <polygon class="cls-3" points="505.62 394.57 502.63 397.55 505.07 400 508.06 397.01 505.62 394.57"/>
            <polygon class="cls-3" points="510.91 389.27 507.92 392.26 510.37 394.7 513.35 391.72 510.91 389.27"/>
            <polygon class="cls-3" points="516.21 383.98 513.22 386.97 515.66 389.41 518.65 386.42 516.21 383.98"/>
            <polygon class="cls-3" points="488.51 419.82 485.52 422.81 487.96 425.25 490.95 422.26 488.51 419.82"/>
            <polygon class="cls-3" points="493.8 414.53 490.82 417.51 493.26 419.96 496.25 416.97 493.8 414.53"/>
            <polygon class="cls-3" points="499.1 409.23 496.11 412.22 498.55 414.66 501.54 411.67 499.1 409.23"/>
            <polygon class="cls-3" points="504.39 403.94 501.41 406.92 503.85 409.37 506.84 406.38 504.39 403.94"/>
            <polygon class="cls-3" points="509.69 398.64 506.7 401.63 509.14 404.07 512.13 401.08 509.69 398.64"/>
            <polygon class="cls-3" points="514.98 393.35 512 396.33 514.44 398.78 517.43 395.79 514.98 393.35"/>
            <polygon class="cls-3" points="521.5 378.68 518.51 381.67 522.59 385.74 517.29 391.04 519.73 393.48 528.01 385.2 521.5 378.68"/>
            <polygon class="cls-3" points="492.58 423.89 489.6 426.88 492.04 429.32 495.03 426.34 492.58 423.89"/>
            <polygon class="cls-3" points="513.76 402.71 494.89 421.58 497.33 424.03 516.2 405.16 513.76 402.71"/>
            <polygon class="cls-3" points="519.05 397.42 516.07 400.41 518.51 402.85 521.5 399.86 519.05 397.42"/>
            <polygon class="cls-3" points="524.35 392.12 521.36 395.11 523.81 397.55 526.79 394.57 524.35 392.12"/>
            <polygon class="cls-3" points="529.1 392.26 532.09 389.27 529.64 386.83 526.66 389.82 529.1 392.26"/>
            <path class="cls-3" d="m462.17,388.3c.27-.27.44-.65.44-1.06v-16.32c0-.83-.67-1.5-1.5-1.5s-1.5.67-1.5,1.5v16.32c0,.83.67,1.5,1.5,1.5.41,0,.79-.17,1.06-.44Z"/>
            <path class="cls-3" d="m491.74,380.47c.41,0,.79-.17,1.06-.44s.44-.65.44-1.06v-16.31c0-.83-.67-1.5-1.5-1.5s-1.5.67-1.5,1.5v16.31c0,.83.67,1.5,1.5,1.5Z"/>
            <path class="cls-3" d="m476.42,392.72c.42,0,.79-.17,1.06-.44.27-.27.44-.65.44-1.06v-36.17c0-.83-.67-1.5-1.5-1.5s-1.5.67-1.5,1.5v36.17c0,.83.67,1.5,1.5,1.5Z"/>
          </g>
          <path class="cls-3" d="m355.35,442.08c-.36.93-1.45,2.49-4.77,2.49h-85.09c-3.32,0-4.41-1.56-4.77-2.49-.37-.98-.6-2.99,2.16-5.48l38.87-35.18c1.2-1.09,2.68-1.82,4.29-2.15v-3.66c0-1.1.9-2,2-2,4.19,0,7.59-3.4,7.59-7.59s-3.4-7.59-7.59-7.59-7.59,3.4-7.59,7.59c0,1.1-.9,2-2,2s-2-.9-2-2c0-6.39,5.2-11.59,11.59-11.59s11.59,5.2,11.59,11.59c0,5.71-4.15,10.46-9.59,11.41v1.83c1.61.33,3.09,1.07,4.29,2.15l38.87,35.18c2.75,2.49,2.53,4.5,2.16,5.48Zm-3.98-1.57c-.16-.23-.43-.55-.86-.94l-38.87-35.18c-.95-.86-2.23-1.33-3.61-1.33s-2.66.47-3.61,1.33l-38.87,35.18c-.43.39-.69.71-.85.94.19.03.45.06.78.06h85.09c.33,0,.59-.03.78-.06Z"/>
        </g>
        <g>
          <g>
            <path class="cls-3" d="m84.69,12.6c-.78-.78-2.05-.78-2.83,0-.78.78-.78,2.05,0,2.83,2.7,2.7,4.18,6.29,4.18,10.12s-1.48,7.42-4.18,10.12c-.78.78-.78,2.05,0,2.83.39.39.9.59,1.41.59s1.02-.2,1.41-.59c3.45-3.45,5.35-8.05,5.35-12.95,0-4.89-1.9-9.49-5.35-12.95Z"/>
            <path class="cls-3" d="m128.21,67.54c3.99,3.99,3.99,10.47,0,14.46-1.93,1.93-4.5,3-7.23,3s-5.3-1.06-7.23-3c-.09-.08-.16-.18-.23-.27l-24.97-36.03c-4.71,3.94-10.59,6.09-16.8,6.09h0c-7.01,0-13.6-2.73-18.56-7.69-4.96-4.96-7.69-11.55-7.69-18.56s2.73-13.6,7.69-18.56c4.96-4.96,11.55-7.69,18.56-7.69s13.6,2.73,18.56,7.69c4.96,4.96,7.69,11.55,7.69,18.56,0,6.21-2.15,12.09-6.09,16.8l36.03,24.97c.1.07.19.14.28.23Zm-34.21-42c0-5.94-2.31-11.53-6.52-15.73-4.2-4.2-9.79-6.52-15.73-6.52s-11.53,2.31-15.73,6.52c-4.2,4.2-6.52,9.79-6.52,15.73s2.31,11.53,6.52,15.73c4.2,4.2,9.79,6.52,15.73,6.52s11.53-2.31,15.73-6.52c4.2-4.2,6.52-9.79,6.52-15.73Zm31.5,44.95l-28.68-19.87,19.87,28.68c1.16,1.1,2.68,1.71,4.28,1.71s3.23-.65,4.4-1.82c2.39-2.39,2.43-6.25.12-8.68Z"/>
          </g>
          <path class="cls-3" d="m25.8,116.92l-13,13c-.78.78-2.05.78-2.83,0l-4.85-4.84-31.83,31.83c-.78.78-2.05.78-2.83,0l-50.85-50.85c-.78-.78-.78-2.05,0-2.83l31.83-31.83-4.84-4.84c-.78-.78-.78-2.05,0-2.83l13-13c.78-.78,2.05-.78,2.83,0l20.2,20.2c-.31-.65-.6-1.3-.83-1.95-1.04-2.87-.86-5.64.49-7.8,1.2-1.92,3.21-3.2,5.37-3.43,1.78-.19,3.59.54,5.1,2.04,1.84,1.84,2.94,4.53,3.02,7.38.09,3.29-.66,6.61-1.43,9.1,4.16-1.36,10.71-3.17,16.15-3.17,4.76,0,7.59,1.83,9.12,3.36,2.45,2.44,3.51,6.11,2.72,9.35-.56,2.29-2.05,4.21-4.19,5.42-2.16,1.23-5.97,2.31-11.85.51-1.65-.51-3.51-1.42-5.37-2.5l24.86,24.86c.78.78.78,2.05,0,2.83ZM-5.01,80.27c3.24,2.53,8.69,6.47,12.5,7.64,3.52,1.08,6.61,1.02,8.7-.16,1.19-.67,1.97-1.68,2.27-2.9.35-1.45.13-3.77-1.66-5.57-1.43-1.43-3.61-2.19-6.29-2.19-5.15,0-11.67,1.89-15.52,3.18Zm-4.64-4.62c.74-2.23,1.53-5.36,1.44-8.38-.05-1.81-.74-3.55-1.85-4.66-.63-.63-1.3-.95-1.84-.89-.7.07-1.75.53-2.4,1.57-.7,1.12-.74,2.61-.12,4.32,1,2.77,3.15,5.89,4.78,8.04Zm-30.36,38.06l-22.31-22.31c-.1-.1-.18-.2-.25-.31l-13.56,13.56,22.6,22.6,13.53-13.53Zm16.89-16.89l-22.6-22.6-14.09,14.09c.11.07.21.16.31.25l22.31,22.31,14.06-14.06Zm8.56,42.28c-.11-.07-.21-.16-.31-.25l-22.32-22.32-13.53,13.53,22.6,22.6,13.56-13.56ZM2.3,122.24l-22.6-22.6-14.06,14.06,22.31,22.32c.1.1.18.2.25.31l14.09-14.09Zm19.26-6.74l-60.54-60.54-10.17,10.17L11.39,125.67l10.17-10.17Z"/>
          <g>
            <path class="cls-3" d="m193.94,49.89c0-4.37,3.56-7.93,7.93-7.93s7.93,3.56,7.93,7.93c0,4.37-3.56,7.93-7.93,7.93s-7.93-3.56-7.93-7.93Zm5,0c0,1.62,1.31,2.93,2.93,2.93s2.93-1.31,2.93-2.93-1.32-2.93-2.93-2.93-2.93,1.31-2.93,2.93Z"/>
            <path class="cls-3" d="m219.25,82.63c0,4.37-3.56,7.93-7.93,7.93h0c-4.37,0-7.93-3.56-7.93-7.93s3.56-7.93,7.93-7.93c4.37,0,7.93,3.56,7.93,7.93Zm-5,0c0-1.62-1.31-2.93-2.93-2.93-1.61,0-2.93,1.32-2.93,2.93s1.31,2.93,2.93,2.93c1.62,0,2.93-1.31,2.93-2.93Z"/>
            <path class="cls-3" d="m226.02,43.3l-42.38,42.38c-.98.98-.98,2.56,0,3.54.49.49,1.13.73,1.77.73s1.28-.24,1.77-.73l42.38-42.38c.98-.98.98-2.56,0-3.54-.98-.98-2.56-.98-3.54,0Z"/>
            <path class="cls-3" d="m247.46,66.26c0,22.87-18.6,41.47-41.47,41.47s-41.47-18.6-41.47-41.47,18.6-41.47,41.47-41.47,41.47,18.6,41.47,41.47Zm-4,0c0-20.66-16.81-37.47-37.47-37.47s-37.47,16.81-37.47,37.47,16.81,37.47,37.47,37.47,37.47-16.81,37.47-37.47Z"/>
          </g>
          <g>
            <path class="cls-3" d="m99.96,98.33c.59.05,1.13.37,1.47.86l25.18,36.63c.31.45.4.99.31,1.5l23.45,23.45c.78.78.78,2.05,0,2.83l-46.92,46.92c-.78.78-2.05.78-2.83,0l-24.49-24.49-36.48-25.08c-.49-.34-.8-.87-.86-1.47-.05-.59.16-1.18.58-1.6l58.98-58.98c.42-.42,1.01-.63,1.6-.58Zm24.38,42.07l-44.09,44.09,21.79,21.79,44.09-44.09-21.79-21.79Zm-24.85-36.96l-55.58,55.58,33.28,22.87,45.18-45.18-22.88-33.28Z"/>
            <polygon class="cls-3" points="89.61 183.56 86.63 186.55 89.07 188.99 92.06 186 89.61 183.56"/>
            <polygon class="cls-3" points="94.91 178.26 91.92 181.25 94.36 183.69 97.35 180.71 94.91 178.26"/>
            <polygon class="cls-3" points="100.2 172.97 97.21 175.96 99.66 178.4 102.65 175.41 100.2 172.97"/>
            <polygon class="cls-3" points="105.5 167.67 102.51 170.66 104.95 173.1 107.94 170.12 105.5 167.67"/>
            <polygon class="cls-3" points="110.79 162.38 107.81 165.37 110.25 167.81 113.23 164.82 110.79 162.38"/>
            <polygon class="cls-3" points="116.09 157.09 113.1 160.07 115.54 162.52 118.53 159.53 116.09 157.09"/>
            <polygon class="cls-3" points="121.38 151.79 118.39 154.78 120.84 157.22 123.82 154.23 121.38 151.79"/>
            <polygon class="cls-3" points="126.68 146.5 123.69 149.48 126.13 151.93 129.12 148.94 126.68 146.5"/>
            <polygon class="cls-3" points="93.69 187.63 90.7 190.62 93.14 193.06 96.13 190.08 93.69 187.63"/>
            <polygon class="cls-3" points="98.98 182.34 95.99 185.33 98.44 187.77 101.42 184.78 98.98 182.34"/>
            <polygon class="cls-3" points="104.28 177.04 101.29 180.03 103.73 182.47 106.72 179.49 104.28 177.04"/>
            <polygon class="cls-3" points="109.57 171.75 106.58 174.74 109.03 177.18 112.01 174.19 109.57 171.75"/>
            <polygon class="cls-3" points="114.87 166.45 111.88 169.44 114.32 171.88 117.31 168.9 114.87 166.45"/>
            <polygon class="cls-3" points="120.16 161.16 117.17 164.15 119.62 166.59 122.6 163.6 120.16 161.16"/>
            <polygon class="cls-3" points="125.46 155.86 122.47 158.85 124.91 161.29 127.9 158.31 125.46 155.86"/>
            <polygon class="cls-3" points="97.76 191.71 94.77 194.69 97.21 197.14 100.2 194.15 97.76 191.71"/>
            <polygon class="cls-3" points="103.05 186.41 100.07 189.4 102.51 191.84 105.5 188.85 103.05 186.41"/>
            <polygon class="cls-3" points="108.35 181.12 105.36 184.1 107.8 186.55 110.79 183.56 108.35 181.12"/>
            <polygon class="cls-3" points="113.64 175.82 110.66 178.81 113.1 181.25 116.09 178.26 113.64 175.82"/>
            <polygon class="cls-3" points="118.94 170.53 115.95 173.51 118.39 175.96 121.38 172.97 118.94 170.53"/>
            <polygon class="cls-3" points="124.23 165.23 121.25 168.22 123.69 170.66 126.68 167.67 124.23 165.23"/>
            <polygon class="cls-3" points="130.75 150.57 127.76 153.56 131.84 157.63 126.54 162.92 128.98 165.37 137.26 157.09 130.75 150.57"/>
            <polygon class="cls-3" points="101.83 195.78 98.85 198.76 101.29 201.21 104.28 198.22 101.83 195.78"/>
            <polygon class="cls-3" points="123.01 174.6 104.14 193.47 106.58 195.91 125.45 177.04 123.01 174.6"/>
            <polygon class="cls-3" points="128.3 169.3 125.32 172.29 127.76 174.74 130.75 171.75 128.3 169.3"/>
            <polygon class="cls-3" points="133.6 164.01 130.61 167 133.06 169.44 136.04 166.45 133.6 164.01"/>
            <polygon class="cls-3" points="138.35 164.15 141.34 161.16 138.89 158.72 135.91 161.7 138.35 164.15"/>
            <path class="cls-3" d="m71.42,160.19c.27-.27.44-.65.44-1.06v-16.32c0-.83-.67-1.5-1.5-1.5s-1.5.67-1.5,1.5v16.32c0,.83.67,1.5,1.5,1.5.41,0,.79-.17,1.06-.44Z"/>
            <path class="cls-3" d="m100.99,152.36c.41,0,.79-.17,1.06-.44.27-.27.44-.65.44-1.06v-16.31c0-.83-.67-1.5-1.5-1.5s-1.5.67-1.5,1.5v16.31c0,.83.67,1.5,1.5,1.5Z"/>
            <path class="cls-3" d="m85.67,164.6c.42,0,.79-.17,1.06-.44.27-.27.44-.65.44-1.06v-36.17c0-.83-.67-1.5-1.5-1.5s-1.5.67-1.5,1.5v36.17c0,.83.67,1.5,1.5,1.5Z"/>
          </g>
        </g>
      </g>
    </pattern>
  </defs>
  <g id="Layer_1-2" data-name="Layer 1">
    <g>
      <rect class="cls-1" width="2360.32" height="2677.47"/>
      <rect class="cls-1" width="2360.32" height="2677.47"/>
    </g>
  </g>
</svg>